<svg id="Layer_1" enable-background="new 0 0 512 512" height="512" viewBox="0 0 512 512" width="512" xmlns="http://www.w3.org/2000/svg"><g><path d="m336.333 158.533h-65.333c-8.284 0-15-6.716-15-15v-79.266h80.333c8.284 0 15 6.716 15 15v64.267c0 8.283-6.716 14.999-15 14.999z" fill="#4ea8e0"/><path d="m256 190.667c-8.284 0-15-6.716-15-15v-96.4c0-8.284 6.716-15 15-15s15 6.716 15 15v96.4c0 8.284-6.716 15-15 15z" fill="#125ca0"/><path d="m464.866 192.8h-417.732c-26.336 0-47.134 21.389-47.134 47.133v18.2c0 8.284 6.716 15 15 15h16.066c0 8.284 6.716 15 15 15h419.867c8.284 0 15-6.716 15-15h16.067c8.284 0 15-6.716 15-15v-18.2c0-26.337-21.39-47.133-47.134-47.133z" fill="#e7f9fb"/><path d="m480.934 273.133h16.066c8.284 0 15-6.716 15-15v-18.2c0-26.337-21.39-47.133-47.134-47.133h-208.866v95.333h209.934c8.284 0 15-6.716 15-15z" fill="#c8ffff"/><path d="m480.934 497h-449.868c-8.284 0-15-6.716-15-15v-208.867h121.254l108.074-108.073c5.857-5.858 15.355-5.858 21.213 0l108.073 108.073h121.254v208.867c0 8.284-6.716 15-15 15z" fill="#ffdd54"/><path d="m495.934 482v-208.867h-121.254l-108.074-108.073c-2.929-2.929-6.768-4.394-10.606-4.394v336.334h224.934c8.284 0 15-6.716 15-15z" fill="#ecbe00"/><path d="m288.134 497h-64.268c-8.284 0-15-6.716-15-15v-64.267c0-8.284 6.716-15 15-15h64.268c8.284 0 15 6.716 15 15v64.267c0 8.284-6.716 15-15 15z" fill="#c6001c"/><path d="m159.6 368.467c-8.284 0-15-6.716-15-15v-16.067c0-8.284 6.716-15 15-15s15 6.716 15 15v16.067c0 8.284-6.716 15-15 15z" fill="#e7f9fb"/><path d="m223.866 368.467c-8.284 0-15-6.716-15-15v-16.067c0-8.284 6.716-15 15-15s15 6.716 15 15v16.067c0 8.284-6.716 15-15 15z" fill="#e7f9fb"/><path d="m288.134 368.467c-8.284 0-15-6.716-15-15v-16.067c0-8.284 6.716-15 15-15s15 6.716 15 15v16.067c0 8.284-6.716 15-15 15z" fill="#c8ffff"/><path d="m256 288.133c-8.284 0-15-6.716-15-15v-16.066c0-8.284 6.716-15 15-15s15 6.716 15 15v16.066c0 8.284-6.716 15-15 15z" fill="#e7f9fb"/><path d="m159.6 448.8c-8.284 0-15-6.716-15-15v-16.066c0-8.284 6.716-15 15-15s15 6.716 15 15v16.066c0 8.284-6.716 15-15 15z" fill="#e7f9fb"/><path d="m95.333 368.467c-8.284 0-15-6.716-15-15v-16.067c0-8.284 6.716-15 15-15s15 6.716 15 15v16.067c0 8.284-6.716 15-15 15z" fill="#e7f9fb"/><path d="m95.333 448.8c-8.284 0-15-6.716-15-15v-16.066c0-8.284 6.716-15 15-15s15 6.716 15 15v16.066c0 8.284-6.716 15-15 15z" fill="#e7f9fb"/><g fill="#c8ffff"><path d="m352.4 368.467c-8.284 0-15-6.716-15-15v-16.067c0-8.284 6.716-15 15-15s15 6.716 15 15v16.067c0 8.284-6.715 15-15 15z"/><path d="m352.4 448.8c-8.284 0-15-6.716-15-15v-16.066c0-8.284 6.716-15 15-15s15 6.716 15 15v16.066c0 8.284-6.715 15-15 15z"/><circle clip-rule="evenodd" cx="15" cy="15" fill-rule="evenodd" r="15"/><circle clip-rule="evenodd" cx="304.2" cy="15" fill-rule="evenodd" r="15"/><circle clip-rule="evenodd" cx="111.4" cy="15" fill-rule="evenodd" r="15"/><circle clip-rule="evenodd" cx="400.6" cy="15" fill-rule="evenodd" r="15"/><circle clip-rule="evenodd" cx="207.8" cy="15" fill-rule="evenodd" r="15"/><circle clip-rule="evenodd" cx="497" cy="15" fill-rule="evenodd" r="15"/><circle clip-rule="evenodd" cx="63.2" cy="111.4" fill-rule="evenodd" r="15"/><circle clip-rule="evenodd" cx="159.6" cy="111.4" fill-rule="evenodd" r="15"/><circle clip-rule="evenodd" cx="448.8" cy="111.4" fill-rule="evenodd" r="15"/></g><path d="m303.134 482v-64.267c0-8.284-6.716-15-15-15h-32.134v94.267h32.134c8.284 0 15-6.716 15-15z" fill="#a50017"/><path d="m271 273.133v-16.066c0-8.284-6.716-15-15-15v46.066c8.284 0 15-6.716 15-15z" fill="#c8ffff"/><path d="m494.641 475.908-64.267-144.6c-2.407-5.417-7.779-8.908-13.707-8.908s-11.3 3.491-13.707 8.908l-64.267 144.6c-2.062 4.64-1.637 10.008 1.13 14.266 2.767 4.257 7.5 6.826 12.577 6.826h128.533c5.077 0 9.811-2.569 12.577-6.826 2.767-4.258 3.193-9.626 1.131-14.266z" fill="#57c126"/><path d="m480.934 497c5.077 0 9.811-2.569 12.577-6.826 2.767-4.258 3.192-9.626 1.13-14.266l-64.267-144.6c-2.407-5.417-7.779-8.908-13.707-8.908v174.6z" fill="#00a763"/><path d="m497 512h-482c-8.284 0-15-6.716-15-15s6.716-15 15-15h482c8.284 0 15 6.716 15 15s-6.716 15-15 15z" fill="#e7f9fb"/><path d="m497 482h-241v30h241c8.284 0 15-6.716 15-15s-6.716-15-15-15z" fill="#c8ffff"/></g></svg>